<?xml version="1.0" encoding="UTF-8"?>
<svg width="20px" height="20px" viewBox="0 0 20 20" version="1.1" xmlns="http://www.w3.org/2000/svg" xmlns:xlink="http://www.w3.org/1999/xlink">
    <!-- Generator: sketchtool 50.2 (55047) - http://www.bohemiancoding.com/sketch -->
    <g id="Export" stroke="none" stroke-width="1" fill="none" fill-rule="evenodd">
        <g id="Pictures" transform="translate(-1333.000000, -2.000000)" fill="#000000">
            <g id="Front-desk-icon" transform="translate(1331.000000, 0.000000)">
                <path d="M20.028169,2 C20.5602531,2 21.0219073,2.1956162 21.4131455,2.58685446 C21.8043838,2.97809272 22,3.43974695 22,3.97183099 L22,15.9906103 C22,16.5226944 21.8043838,16.9921732 21.4131455,17.399061 C21.0219073,17.8059488 20.5602531,18.0093897 20.028169,18.0093897 L5.99061033,18.0093897 L2,22 L2,3.97183099 C2,3.43974695 2.1956162,2.97809272 2.58685446,2.58685446 C2.97809272,2.1956162 3.43974695,2 3.97183099,2 L20.028169,2 Z M7.99374022,5.99061033 L7.99374022,8.99530516 L9.99687011,8.99530516 L9.99687011,5.99061033 L7.99374022,5.99061033 Z M14.0031299,5.99061033 L14.0031299,8.99530516 L16.0062598,8.99530516 L16.0062598,5.99061033 L14.0031299,5.99061033 Z M5.99061033,12 L5.99061033,14.0031299 L18.0093897,14.0031299 L18.0093897,12 L5.99061033,12 Z" id="Combined-Shape"></path>
            </g>
        </g>
    </g>
</svg>
