<?xml version="1.0" encoding="UTF-8"?>
<svg width="561px" height="495px" viewBox="0 0 561 495" version="1.1" xmlns="http://www.w3.org/2000/svg" xmlns:xlink="http://www.w3.org/1999/xlink">
    <!-- Generator: sketchtool 50.2 (55047) - http://www.bohemiancoding.com/sketch -->
    <title>40FCD5C8-499D-4D8E-9BA5-441CD96024A5</title>
    <desc>Created with sketchtool.</desc>
    <defs></defs>
    <g id="Export" stroke="none" stroke-width="1" fill="none" fill-rule="evenodd">
        <g id="Pictures" transform="translate(-770.000000, 0.000000)" fill-rule="nonzero">
            <g id="Assets/illustration-" transform="translate(770.000000, 0.000000)">
                <g id="Map" transform="translate(0.000000, 275.000000)" fill="#00BBD3">
                    <g id="Group">
                        <g>
                            <polygon id="Shape" points="146.559924 84.2980769 145.499433 84.2980769 145.499433 83.0288462 148.044612 82.7115385 148.256711 83.2403846 146.559924 83.4519231"></polygon>
                            <path d="M146.559924,120.576923 L145.499433,120.576923 L145.499433,118.567308 L146.559924,118.567308 L146.559924,120.576923 Z M146.559924,116.557692 L145.499433,116.557692 L145.499433,114.548077 L146.559924,114.548077 L146.559924,116.557692 Z M146.559924,112.538462 L145.499433,112.538462 L145.499433,110.528846 L146.559924,110.528846 L146.559924,112.538462 Z M146.559924,108.413462 L145.499433,108.413462 L145.499433,106.403846 L146.559924,106.403846 L146.559924,108.413462 Z M146.559924,104.394231 L145.499433,104.394231 L145.499433,102.384615 L146.559924,102.384615 L146.559924,104.394231 Z M146.559924,100.375 L145.499433,100.375 L145.499433,98.3653846 L146.559924,98.3653846 L146.559924,100.375 Z M146.559924,96.3557692 L145.499433,96.3557692 L145.499433,94.3461538 L146.559924,94.3461538 L146.559924,96.3557692 Z M146.559924,92.3365385 L145.499433,92.3365385 L145.499433,90.3269231 L146.559924,90.3269231 L146.559924,92.3365385 Z M146.559924,88.3173077 L145.499433,88.3173077 L145.499433,86.3076923 L146.559924,86.3076923 L146.559924,88.3173077 Z" id="Shape"></path>
                            <polygon id="Shape" points="144.120794 124.173077 143.802647 123.644231 145.499433 123.432692 145.499433 122.586538 146.559924 122.586538 146.559924 123.855769"></polygon>
                            <polygon id="Shape" points="141.257467 125.230769 141.151418 123.961538 143.696597 123.644231 143.908696 124.173077 142.317958 124.384615 142.317958 125.230769"></polygon>
                            <path d="M141.575614,132 L141.469565,130.307692 L142.530057,130.307692 L142.636106,132 L141.575614,132 Z M141.469565,128.615385 L141.363516,126.923077 L142.424008,126.923077 L142.530057,128.615385 L141.469565,128.615385 Z" id="Shape"></path>
                            <polygon id="Shape" points="140.303025 135.173077 140.090926 134.644231 141.681664 134.538462 141.681664 133.692308 142.742155 133.692308 142.742155 134.961538"></polygon>
                            <polygon id="Shape" points="136.485255 136.336538 135.424764 136.125 136.273157 134.961538 138.712287 134.75 138.818336 135.278846 137.12155 135.490385"></polygon>
                            <path d="M133.621928,144.480769 L132.667486,144.269231 L134.364272,142.259615 L135.318715,142.471154 L133.621928,144.480769 Z M133.727977,140.355769 L133.091682,139.192308 L133.940076,138.134615 L134.894518,138.346154 L134.152174,139.298077 L134.68242,140.25 L133.727977,140.355769 Z" id="Shape"></path>
                            <polygon id="Shape" points="128.637618 147.759615 128.42552 147.230769 130.228355 147.019231 130.970699 146.278846 131.925142 146.384615 130.970699 147.548077"></polygon>
                            <polygon id="Shape" points="122.486767 148.817308 121.850473 148.5 123.865406 147.548077 124.925898 147.442308 125.137996 147.971154 124.289603 148.076923"></polygon>
                            <polygon id="Shape" points="118.562949 151.673077 117.502457 151.673077 117.502457 150.509615 119.199244 149.663462 119.941588 150.086538 118.562949 150.721154"></polygon>
                            <polygon id="Shape" points="118.562949 153.682692 115.805671 153.259615 116.123819 152.730769 117.502457 152.942308 117.502457 152.307692 118.562949 152.307692"></polygon>
                            <polygon id="Shape" points="111.245558 152.519231 106.685444 151.673077 107.109641 151.25 111.563705 151.990385"></polygon>
                            <polygon id="Shape" points="100.004348 151.355769 99.0499055 151.25 100.004348 149.980769 102.549527 150.403846 102.125331 150.932692 100.640643 150.615385"></polygon>
                            <polygon id="Shape" points="96.1865784 153.153846 96.1865784 152.625 97.989414 152.625 98.6257089 151.778846 99.5801512 151.990385 98.6257089 153.048077"></polygon>
                            <path d="M18.9827977,161.192308 L15.8013233,160.557692 L16.2255198,160.028846 L19.194896,160.663462 L19.9372401,160.557692 L20.1493384,161.086538 L18.9827977,161.192308 Z M24.2852552,160.769231 L24.0731569,160.240385 L28.3151229,159.923077 L28.5272212,160.451923 L24.2852552,160.769231 Z M7.7415879,160.134615 L7.63553875,159.605769 L11.8775047,159.394231 L11.9835539,159.923077 L7.7415879,160.134615 Z M31.920794,158.971154 L31.1784499,158.548077 L34.2538752,157.067308 L34.9962193,157.490385 L31.920794,158.971154 Z M38.0716446,156.009615 L37.3293006,155.586538 L40.0865784,154.317308 L40.9349716,154.317308 L41.0410208,154.846154 L40.510775,154.846154 L38.0716446,156.009615 Z M45.1769376,154.740385 L45.0708885,154.211538 L49.3128544,154.105769 L49.4189036,154.634615 L45.1769376,154.740385 Z M53.7669187,154.423077 L53.6608696,153.894231 L57.9028355,153.788462 L58.0088847,154.317308 L53.7669187,154.423077 Z M62.2508507,154.211538 L62.1448015,153.682692 L66.3867675,153.576923 L66.4928166,154.105769 L62.2508507,154.211538 Z M70.7347826,154 L70.6287335,153.471154 L74.8706994,153.365385 L74.9767486,153.894231 L70.7347826,154 Z M79.2187146,153.682692 L79.1126654,153.153846 L83.3546314,153.048077 L83.4606805,153.576923 L79.2187146,153.682692 Z M87.7026465,153.471154 L87.5965974,152.942308 L91.8385633,152.836538 L91.9446125,153.365385 L87.7026465,153.471154 Z" id="Shape"></path>
                            <polygon id="Shape" points="1.90888469 160.663462 0.848393195 160.663462 0.848393195 159.394231 3.49962193 159.5 3.39357278 160.028846 1.90888469 159.923077"></polygon>
                            <path d="M14.7408318,180.442308 L11.347259,179.067308 L11.9835539,178.644231 L15.3771267,180.019231 L14.7408318,180.442308 Z M8.27183365,177.375 L6.46899811,175.365385 L7.42344045,175.153846 L9.22627599,177.163462 L8.27183365,177.375 Z M4.56011342,173.461538 L2.75727788,171.451923 L3.71172023,171.240385 L5.51455577,173.25 L4.56011342,173.461538 Z M0.954442344,169.442308 L0.318147448,168.807692 L0.848393195,167.221154 L1.90888469,167.326923 L1.37863894,168.807692 L1.90888469,169.336538 L0.954442344,169.442308 Z M2.65122873,165.105769 L1.59073724,165 L1.80283554,164.471154 L1.06049149,162.990385 L2.12098299,162.884615 L2.96937618,164.471154 L2.65122873,165.105769 Z" id="Shape"></path>
                            <polygon id="Shape" points="19.6190926 183.403846 17.073913 183.298077 16.7557656 182.028846 17.8162571 182.028846 18.0283554 182.875 19.7251418 182.875"></polygon>
                            <path d="M34.5720227,188.269231 L30.9663516,186.788462 L31.6026465,186.365385 L35.2083176,187.846154 L34.5720227,188.269231 Z M27.3606805,185.413462 L23.6489603,184.038462 L24.2852552,183.615385 L27.9969754,184.990385 L27.3606805,185.413462 Z" id="Shape"></path>
                            <polygon id="Shape" points="42.4196597 190.596154 38.0716446 190.173077 38.2837429 189.644231 38.2837429 189.644231 38.2837429 189.644231 38.2837429 189.644231 38.9200378 189.221154"></polygon>
                            <polygon id="Shape" points="35.7385633 189.855769 33.405482 189.644231 33.6175803 189.115385 35.9506616 189.326923"></polygon>
                            <polygon id="Shape" points="29.6937618 189.961538 28.6332703 189.961538 28.6332703 188.480769 31.2844991 188.798077 31.0724008 189.326923 29.6937618 189.221154"></polygon>
                            <rect id="Rectangle-path" x="28.6332703" y="191.019231" width="1.06049149" height="1.16346154"></rect>
                            <polygon id="Shape" points="30.7542533 195.144231 28.6332703 194.509615 28.6332703 193.346154 29.6937618 193.346154 29.6937618 194.192308 31.1784499 194.721154"></polygon>
                            <path d="M53.979017,201.807692 L50.0551985,200.75 L50.5854442,200.326923 L54.5092628,201.384615 L53.979017,201.807692 Z M46.2374291,199.586538 L42.3136106,198.528846 L42.8438563,198.105769 L46.7676749,199.163462 L46.2374291,199.586538 Z M38.4958412,197.365385 L34.5720227,196.307692 L35.1022684,195.884615 L39.026087,196.942308 L38.4958412,197.365385 Z" id="Shape"></path>
                            <polygon id="Shape" points="60.0238185 203.5 57.7967864 202.865385 58.3270321 202.442308 59.8117202 202.865385 61.08431 202.336538 61.8266541 202.653846"></polygon>
                            <polygon id="Shape" points="64.7960302 201.384615 64.0536862 200.961538 65.9625709 200.115385 68.0835539 200.75 67.5533081 201.173077 66.06862 200.75"></polygon>
                            <polygon id="Shape" points="71.0529301 203.394231 69.568242 202.019231 70.5226843 201.807692 72.0073724 203.076923"></polygon>
                            <polygon id="Shape" points="72.431569 206.144231 71.9013233 205.721154 73.3860113 205.403846 72.5376181 204.663462 73.4920605 204.451923 74.7646503 205.615385"></polygon>
                            <polygon id="Shape" points="68.8258979 208.048077 67.2351607 206.884615 69.6742911 206.25 70.0984877 206.778846 68.8258979 207.096154 69.6742911 207.730769"></polygon>
                            <polygon id="Shape" points="73.9162571 211.75 71.3710775 209.846154 72.2194707 209.528846 74.7646503 211.432692"></polygon>
                            <polygon id="Shape" points="77.9461248 214.605769 76.4614367 213.548077 77.3098299 213.230769 78.2642722 213.971154 79.9610586 213.653846 80.279206 214.182692"></polygon>
                            <polygon id="Shape" points="80.3852552 214.182692 79.9610586 213.653846 81.4457467 213.336538 80.8094518 212.701923 81.7638941 212.490385 82.8243856 213.653846"></polygon>
                            <polygon id="Shape" points="78.4763705 209.846154 77.415879 208.576923 80.0671078 208.259615 80.279206 208.788462 78.9005671 209 79.4308129 209.634615"></polygon>
                            <polygon id="Shape" points="84.521172 208.365385 84.3090737 207.836538 88.5510397 207.413462 88.763138 207.942308"></polygon>
                            <polygon id="Shape" points="95.4442344 207.201923 94.1716446 206.567308 92.8990548 207.096154 92.2627599 206.673077 94.2776938 205.932692 96.1865784 206.778846"></polygon>
                            <path d="M107.958034,213.230769 L104.77656,211.75 L105.518904,211.326923 L108.700378,212.807692 L107.958034,213.230769 Z M101.701134,210.163462 L98.5196597,208.682692 L99.2620038,208.259615 L102.443478,209.740385 L101.701134,210.163462 Z" id="Shape"></path>
                            <polygon id="Shape" points="112.836295 216.298077 110.503214 215.980769 110.079017 214.817308 111.139509 214.711538 111.457656 215.557692 113.154442 215.769231"></polygon>
                            <polygon id="Shape" points="117.502457 217.355769 116.654064 216.826923 115.593573 216.615385 115.91172 216.192308 117.290359 216.298077 118.350851 217.038462"></polygon>
                            <polygon id="Shape" points="120.89603 219.471154 119.305293 218.413462 120.153686 218.096154 121.108129 218.730769 122.486767 218.201923 123.017013 218.625"></polygon>
                            <polygon id="Shape" points="123.123062 218.625 122.486767 218.201923 123.971456 217.673077 123.547259 216.826923 124.60775 216.721154 125.137996 217.884615"></polygon>
                            <path d="M122.592817,215.028846 L122.486767,214.711538 L123.759357,213.125 L124.7138,213.336538 L123.547259,214.711538 L123.653308,214.817308 L122.592817,215.028846 Z M125.031947,211.644231 L124.60775,209.846154 L125.668242,209.740385 L126.092439,211.538462 L125.031947,211.644231 Z M124.183554,207.942308 L123.759357,206.144231 L124.819849,206.038462 L125.244045,207.836538 L124.183554,207.942308 Z" id="Shape"></path>
                            <polygon id="Shape" points="123.229112 204.240385 123.017013 203.076923 125.137996 202.442308 125.668242 202.971154 124.077505 203.394231 124.289603 204.240385"></polygon>
                            <path d="M129.379962,201.913462 L128.849716,201.490385 L132.561437,200.538462 L133.091682,200.961538 L129.379962,201.913462 Z M136.591304,199.692308 L135.636862,199.480769 L137.651796,197.682692 L138.606238,197.894231 L136.591304,199.692308 Z M140.621172,195.990385 L139.66673,195.778846 L140.196975,195.355769 L140.196975,193.875 L141.257467,193.875 L141.257467,195.461538 L140.621172,195.990385 Z M141.257467,191.865385 L140.196975,191.865385 L140.196975,189.75 L141.257467,189.75 L141.257467,191.865385 Z" id="Shape"></path>
                            <polygon id="Shape" points="141.257467 187.634615 140.196975 187.634615 140.196975 186.365385 142.742155 186.153846 142.954253 186.682692 141.257467 186.788462"></polygon>
                            <path d="M146.772023,186.153846 L146.029679,185.836538 L148.574858,184.461538 L149.317202,184.778846 L146.772023,186.153846 Z M151.862382,183.509615 L151.120038,183.192308 L152.07448,182.663462 L154.513611,182.346154 L154.831758,182.875 L152.604726,183.192308 L151.862382,183.509615 Z M158.437429,182.240385 L158.119282,181.711538 L161.724953,181.182692 L162.0431,181.711538 L158.437429,182.240385 Z" id="Shape"></path>
                            <polygon id="Shape" points="168.936295 181.605769 167.451607 181.076923 165.542722 181.288462 165.330624 180.865385 167.557656 180.548077 169.57259 181.182692"></polygon>
                            <path d="M211.8862,184.355769 L209.553119,183.932692 L209.977316,183.403846 L212.098299,183.826923 L213.582987,183.826923 L213.689036,184.355769 L211.8862,184.355769 Z M205.947448,183.192308 L202.341777,182.451923 L202.765974,181.923077 L206.371645,182.663462 L205.947448,183.192308 Z M172.648015,182.557692 L172.435917,182.028846 L176.253686,181.711538 L176.465784,182.240385 L172.648015,182.557692 Z M180.389603,181.817308 L180.177505,181.288462 L180.495652,181.288462 L183.889225,180.759615 L184.207372,181.288462 L180.389603,181.817308 Z M198.630057,181.817308 L195.024386,181.076923 L195.448582,180.548077 L199.054253,181.288462 L198.630057,181.817308 Z M187.919093,180.759615 L187.600945,180.230769 L190.676371,179.807692 L191.630813,180.019231 L191.206616,180.548077 L190.570321,180.442308 L187.919093,180.759615 Z" id="Shape"></path>
                            <polygon id="Shape" points="220.370132 184.778846 219.309641 184.144231 217.400756 184.144231 217.400756 183.615385 219.733837 183.509615 221.218526 184.461538"></polygon>
                            <path d="M232.459735,192.394231 L229.490359,190.490385 L230.338752,190.173077 L233.308129,192.076923 L232.459735,192.394231 Z M226.414934,188.586538 L223.445558,186.682692 L224.293951,186.365385 L227.263327,188.269231 L226.414934,188.586538 Z" id="Shape"></path>
                            <polygon id="Shape" points="239.246881 195.25 236.9138 195.144231 235.429112 194.192308 236.277505 193.875 237.444045 194.615385 239.35293 194.721154"></polygon>
                            <polygon id="Shape" points="247.094518 195.673077 244.655388 195.567308 244.761437 195.038462 246.458223 195.144231 247.200567 194.298077 248.155009 194.509615"></polygon>
                            <polygon id="Shape" points="248.473157 194.192308 247.412665 193.980769 248.473157 192.923077 250.912287 192.923077 250.912287 193.451923 249.109452 193.451923"></polygon>
                            <path d="M257.487335,193.451923 L255.048204,193.451923 L255.048204,192.923077 L257.275236,192.923077 L258.653875,192.5 L259.184121,192.923077 L257.487335,193.451923 Z M262.789792,191.865385 L262.259546,191.442308 L265.865217,190.384615 L266.395463,190.807692 L262.789792,191.865385 Z" id="Shape"></path>
                            <polygon id="Shape" points="269.895085 189.855769 269.470888 189.432692 271.485822 188.798077 273.712854 189.115385 273.394707 189.644231 271.591871 189.432692"></polygon>
                            <path d="M330.131002,199.269231 L325.676938,199.163462 L325.676938,198.634615 L330.131002,198.740385 L330.131002,199.269231 Z M321.222873,199.163462 L316.768809,199.057692 L316.768809,198.528846 L321.222873,198.634615 L321.222873,199.163462 Z M312.314745,198.951923 L310.617958,198.951923 L307.860681,198.317308 L308.284877,197.788462 L310.936106,198.317308 L312.314745,198.317308 L312.314745,198.951923 Z M303.936862,197.471154 L299.800945,196.519231 L300.331191,196.096154 L300.649338,196.201923 L304.361059,196.942308 L303.936862,197.471154 Z M295.983176,195.355769 L293.544045,194.615385 L292.165406,194.509615 L292.271456,193.980769 L293.968242,194.086538 L296.513422,194.826923 L295.983176,195.355769 Z M287.92344,193.769231 L285.060113,192.076923 L285.908507,191.759615 L288.771834,193.451923 L287.92344,193.769231 Z M281.984688,190.913462 L277.742722,190.278846 L278.06087,189.75 L282.302836,190.384615 L281.984688,190.913462 Z" id="Shape"></path>
                            <polygon id="Shape" points="336.918147 199.480769 334.479017 199.375 334.585066 198.846154 336.387902 198.951923 337.342344 198.105769 338.296786 198.423077"></polygon>
                            <polygon id="Shape" points="341.160113 196.201923 340.31172 195.884615 343.281096 193.663462 344.12949 193.875"></polygon>
                            <polygon id="Shape" points="347.098866 191.653846 346.144423 191.336538 347.523062 190.384615 349.856144 190.278846 349.962193 190.807692 348.053308 190.913462"></polygon>
                            <path d="M428.332514,195.25 L424.196597,194.932692 L424.302647,194.403846 L428.438563,194.721154 L428.332514,195.25 Z M420.378828,193.980769 L417.727599,192.923077 L417.197353,192.817308 L417.62155,192.288462 L418.363894,192.5 L421.121172,193.557692 L420.378828,193.980769 Z M413.273535,191.971154 L409.349716,191.230769 L409.773913,190.701923 L413.697732,191.442308 L413.273535,191.971154 Z M365.657467,190.913462 L362.369943,190.807692 L362.369943,190.278846 L365.23327,190.384615 L365.975614,190.067308 L366.611909,190.490385 L365.657467,190.913462 Z M358.234026,190.701923 L355.370699,190.596154 L354.09811,190.596154 L353.99206,190.067308 L355.26465,190.067308 L358.234026,190.173077 L358.234026,190.701923 Z M405.531947,190.384615 L401.608129,189.644231 L402.032325,189.115385 L405.956144,189.855769 L405.531947,190.384615 Z M369.899433,189.115385 L369.263138,188.692308 L371.914367,187.528846 L372.974858,187.528846 L372.868809,188.057692 L372.126465,188.057692 L369.899433,189.115385 Z M397.790359,188.903846 L393.760491,188.798077 L393.866541,188.269231 L398.002457,188.375 L398.214556,188.375 L397.790359,188.903846 Z M389.624575,188.586538 L385.488658,188.480769 L385.594707,187.951923 L389.730624,188.057692 L389.624575,188.586538 Z M381.246692,188.375 L377.110775,188.269231 L377.216824,187.740385 L381.352741,187.846154 L381.246692,188.375 Z" id="Shape"></path>
                            <polygon id="Shape" points="435.013611 195.673077 432.468431 195.567308 432.57448 195.038462 434.271267 195.144231 434.695463 194.298077 435.755955 194.509615"></polygon>
                            <polygon id="Shape" points="436.710397 192.923077 435.755955 192.711538 437.028544 191.230769 437.982987 191.442308"></polygon>
                            <polygon id="Shape" points="439.361626 189.961538 438.301134 189.75 439.361626 188.586538 441.800756 188.480769 441.800756 189.009615 439.997921 189.115385"></polygon>
                            <polygon id="Shape" points="446.148771 188.903846 446.148771 188.375 448.057656 188.375 449.224197 187.634615 449.966541 187.951923 448.587902 188.903846"></polygon>
                            <polygon id="Shape" points="451.451229 187.105769 450.602836 186.788462 452.087524 185.836538 454.420605 185.836538 454.420605 186.365385 452.617769 186.365385"></polygon>
                            <polygon id="Shape" points="460.147259 186.365385 457.814178 186.365385 457.814178 185.836538 459.617013 185.836538 460.889603 185.096154 461.631947 185.413462"></polygon>
                            <polygon id="Shape" points="464.177127 183.932692 463.328733 183.615385 464.601323 182.875 466.828355 182.557692 467.146503 183.086538 465.237618 183.298077"></polygon>
                            <polygon id="Shape" points="470.964272 182.557692 470.752174 182.134615 472.236862 181.923077 471.918715 181.076923 472.979206 180.971154 473.509452 182.240385"></polygon>
                            <path d="M471.070321,178.855769 L470.115879,176.634615 L471.176371,176.528846 L472.130813,178.75 L471.070321,178.855769 Z M469.161437,174.519231 L468.206994,172.298077 L469.267486,172.192308 L470.221928,174.413462 L469.161437,174.519231 Z" id="Shape"></path>
                            <polygon id="Shape" points="467.358601 170.076923 466.828355 168.807692 469.161437 168.278846 469.585633 168.701923 468.100945 169.125 468.419093 169.971154"></polygon>
                            <polygon id="Shape" points="474.251796 167.538462 473.72155 167.115385 474.145747 167.009615 476.372779 165.105769 477.327221 165.423077 474.888091 167.432692"></polygon>
                            <polygon id="Shape" points="481.038941 163.942308 480.508696 163.519231 482.099433 162.990385 482.099433 162.144231 483.159924 162.144231 483.159924 163.307692"></polygon>
                            <path d="M483.159924,159.923077 L482.099433,159.923077 L482.099433,158.336538 L482.947826,157.701923 L483.796219,158.019231 L483.159924,158.548077 L483.159924,159.923077 Z M486.23535,156.115385 L485.386957,155.798077 L487.826087,154 L488.67448,154.317308 L486.23535,156.115385 Z M491.007561,152.519231 L490.159168,152.201923 L492.598299,150.403846 L493.446692,150.721154 L491.007561,152.519231 Z M495.885822,148.817308 L495.037429,148.5 L497.47656,146.701923 L498.324953,147.019231 L495.885822,148.817308 Z M500.764083,145.221154 L499.91569,144.903846 L500.976181,144.057692 L502.885066,143.211538 L503.521361,143.634615 L501.612476,144.480769 L500.764083,145.221154 Z M506.914934,142.259615 L506.278639,141.836538 L509.672212,140.461538 L510.308507,140.884615 L506.914934,142.259615 Z M513.59603,139.403846 L512.959735,138.980769 L516.353308,137.605769 L516.989603,138.028846 L513.59603,139.403846 Z M520.383176,136.548077 L519.746881,136.125 L523.140454,134.75 L523.776749,135.173077 L520.383176,136.548077 Z M527.064272,133.692308 L526.427977,133.269231 L529.82155,131.894231 L530.457845,132.317308 L527.064272,133.692308 Z M533.745369,130.836538 L533.109074,130.413462 L536.502647,129.038462 L537.138941,129.461538 L533.745369,130.836538 Z" id="Shape"></path>
                            <polygon id="Shape" points="540.426465 128.086538 539.684121 127.663462 541.168809 127.028846 541.274858 126.076923 542.33535 126.076923 542.229301 127.240385"></polygon>
                            <path d="M542.653497,123.961538 L541.593006,123.961538 L541.805104,121.846154 L542.865595,121.846154 L542.653497,123.961538 Z M543.077694,119.730769 L542.017202,119.730769 L542.229301,117.615385 L543.289792,117.615385 L543.077694,119.730769 Z M543.60794,115.5 L542.547448,115.5 L542.759546,113.384615 L543.820038,113.384615 L543.60794,115.5 Z M544.138185,111.163462 L543.077694,111.163462 L543.289792,109.048077 L544.350284,109.048077 L544.138185,111.163462 Z M544.668431,106.932692 L543.60794,106.932692 L543.820038,104.817308 L544.880529,104.817308 L544.668431,106.932692 Z M545.092628,102.701923 L544.032136,102.701923 L544.244234,100.586538 L545.304726,100.586538 L545.092628,102.701923 Z M545.622873,98.3653846 L544.562382,98.3653846 L544.77448,96.25 L545.834972,96.25 L545.622873,98.3653846 Z M546.153119,94.1346154 L545.092628,94.1346154 L545.304726,92.0192308 L546.365217,92.0192308 L546.153119,94.1346154 Z M546.683365,89.9038462 L545.622873,89.9038462 L545.941021,87.7884615 L547.001512,87.7884615 L546.683365,89.9038462 Z M547.31966,85.5673077 L546.259168,85.5673077 L546.577316,83.4519231 L547.637807,83.4519231 L547.31966,85.5673077 Z M547.849905,81.3365385 L546.789414,81.3365385 L547.107561,79.2211538 L548.168053,79.2211538 L547.849905,81.3365385 Z M548.4862,77.1057692 L547.425709,77.1057692 L547.743856,74.9903846 L548.804348,74.9903846 L548.4862,77.1057692 Z M549.122495,72.875 L548.062004,72.875 L548.380151,70.7596154 L549.440643,70.7596154 L549.122495,72.875 Z M549.75879,68.5384615 L548.698299,68.5384615 L548.804348,68.1153846 L550.819282,66.5288462 L551.667675,66.8461538 L549.75879,68.3269231 L549.75879,68.5384615 Z M554.000756,65.0480769 L553.152363,64.7307692 L555.485444,62.9326923 L556.333837,63.25 L554.000756,65.0480769 Z" id="Shape"></path>
                            <polygon id="Shape" points="558.666919 61.4519231 557.818526 61.1346154 558.45482 60.6057692 557.182231 60.5 557.394329 59.9711538 560.257656 60.1826923"></polygon>
                            <polygon id="Shape" points="554.849149 60.2884615 552.516068 60.0769231 552.728166 59.5480769 555.061248 59.7596154"></polygon>
                            <polygon id="Shape" points="550.289036 59.8653846 547.849905 59.6538462 547.213611 58.4903846 548.168053 58.2788462 548.698299 59.2307692 550.395085 59.3365385"></polygon>
                            <polygon id="Shape" points="545.304726 56.4807692 541.805104 55.3173077 541.274858 55 542.123251 54.6826923 542.547448 54.8942308 545.941021 56.0576923"></polygon>
                            <polygon id="Shape" points="538.093384 53.0961538 536.502647 52.1442308 537.35104 50.9807692 538.411531 51.1923077 537.775236 52.0384615 538.941777 52.7788462"></polygon>
                            <path d="M539.896219,49.1826923 L538.941777,48.9711538 L539.578072,48.125 L538.835728,47.1730769 L539.79017,46.9615385 L540.638563,48.125 L539.896219,49.1826923 Z M537.35104,45.0576923 L535.760302,43.0480769 L536.714745,42.8365385 L538.305482,44.8461538 L537.35104,45.0576923 Z M534.169565,41.0384615 L532.578828,39.0288462 L533.53327,38.8173077 L535.124008,40.8269231 L534.169565,41.0384615 Z" id="Shape"></path>
                            <polygon id="Shape" points="529.609452 37.7596154 527.488469 37.125 527.912665 35.9615385 528.973157 35.9615385 528.655009 36.9134615 530.139698 37.3365385"></polygon>
                            <path d="M529.609452,33.7403846 L528.54896,33.6346154 L529.291304,31.4134615 L530.351796,31.5192308 L529.609452,33.7403846 Z M528.973157,29.2980769 L528.124764,27.0769231 L529.185255,26.9711538 L530.033648,29.1923077 L528.973157,29.2980769 Z M527.170321,24.9615385 L526.321928,22.7403846 L527.38242,22.6346154 L528.230813,24.8557692 L527.170321,24.9615385 Z M525.473535,20.5192308 L524.625142,18.2980769 L525.685633,18.1923077 L526.534026,20.4134615 L525.473535,20.5192308 Z M523.670699,16.0769231 L522.822306,13.8557692 L523.882798,13.75 L524.731191,15.9711538 L523.670699,16.0769231 Z" id="Shape"></path>
                            <polygon id="Shape" points="521.867864 11.6346154 521.655766 10.8942308 520.277127 11.2115385 519.85293 10.7884615 522.39811 10.1538462 522.928355 11.5288462"></polygon>
                            <path d="M498.961248,16.0769231 L498.537051,15.5480769 L502.142722,14.7019231 L502.566919,15.2307692 L498.961248,16.0769231 Z M506.066541,14.4903846 L505.642344,13.9615385 L509.248015,13.1153846 L509.672212,13.6442308 L506.066541,14.4903846 Z M513.171834,12.9038462 L512.747637,12.375 L516.353308,11.5288462 L516.777505,12.0576923 L513.171834,12.9038462 Z" id="Shape"></path>
                            <polygon id="Shape" points="493.128544 17.4519231 491.325709 16.5 492.068053 16.1826923 493.340643 16.8173077 494.93138 16.3942308 495.355577 16.9230769"></polygon>
                            <path d="M488.356333,15.0192308 L485.280907,13.5384615 L486.023251,13.1153846 L489.098677,14.5961538 L488.356333,15.0192308 Z M482.205482,12.0576923 L479.130057,10.5769231 L479.766352,10.1538462 L479.872401,10.1538462 L482.947826,11.6346154 L482.205482,12.0576923 Z M475.630435,9.41346154 L471.918715,8.25 L472.44896,7.82692308 L476.160681,8.99038462 L475.630435,9.41346154 Z M468.313043,7.19230769 L467.782798,6.98076923 L464.389225,6.55769231 L464.601323,6.02884615 L468.206994,6.45192308 L468.843289,6.66346154 L468.313043,7.19230769 Z M460.147259,6.13461538 L456.011342,5.60576923 L456.22344,5.07692308 L460.359357,5.60576923 L460.147259,6.13461538 Z M451.875425,5.18269231 L447.739509,4.65384615 L447.951607,4.125 L452.087524,4.65384615 L451.875425,5.18269231 Z M443.497543,4.23076923 L439.361626,3.70192308 L439.573724,3.17307692 L443.709641,3.70192308 L443.497543,4.23076923 Z M435.11966,3.17307692 L430.983743,2.64423077 L431.195841,2.11538462 L435.331758,2.64423077 L435.11966,3.17307692 Z M426.741777,2.22115385 L422.60586,1.69230769 L422.817958,1.16346154 L426.953875,1.69230769 L426.741777,2.22115385 Z" id="Shape"></path>
                            <polygon id="Shape" points="414.970321 1.48076923 414.334026 1.05769231 416.34896 0.423076923 418.682042 0.740384615 418.363894 1.26923077 416.561059 1.05769231"></polygon>
                            <path d="M152.392628,82.9230769 L152.180529,82.3942308 L156.316446,81.9711538 L156.528544,82.5 L152.392628,82.9230769 Z M160.664461,82.0769231 L160.452363,81.5480769 L164.58828,81.125 L164.800378,81.6538462 L160.664461,82.0769231 Z M168.936295,81.2307692 L168.724197,80.7019231 L172.860113,80.2788462 L173.072212,80.8076923 L168.936295,81.2307692 Z M177.314178,80.4903846 L177.102079,79.9615385 L181.237996,79.5384615 L181.450095,80.0673077 L177.314178,80.4903846 Z M185.586011,79.6442308 L185.373913,79.1153846 L189.50983,78.6923077 L189.721928,79.2211538 L185.586011,79.6442308 Z M193.857845,78.9038462 L193.645747,78.375 L196.509074,78.0576923 L197.251418,77.7403846 L197.993762,78.1634615 L197.039319,78.5865385 L193.857845,78.9038462 Z M201.175236,76.6826923 L200.432892,76.2596154 L203.614367,74.8846154 L204.356711,75.3076923 L201.175236,76.6826923 Z M207.538185,73.9326923 L206.795841,73.5096154 L209.977316,72.1346154 L210.71966,72.5576923 L207.538185,73.9326923 Z M213.901134,71.0769231 L213.15879,70.6538462 L216.340265,69.2788462 L217.082609,69.7019231 L213.901134,71.0769231 Z M220.264083,68.3269231 L219.521739,67.9038462 L222.703214,66.5288462 L223.445558,66.9519231 L220.264083,68.3269231 Z M226.520983,65.5769231 L225.778639,65.1538462 L228.960113,63.7788462 L229.702457,64.2019231 L226.520983,65.5769231 Z M232.883932,62.7211538 L232.141588,62.2980769 L235.323062,60.9230769 L236.065406,61.3461538 L232.883932,62.7211538 Z M239.246881,59.9711538 L238.504537,59.5480769 L241.686011,58.1730769 L242.428355,58.5961538 L239.246881,59.9711538 Z M245.60983,57.1153846 L244.867486,56.6923077 L248.04896,55.3173077 L248.791304,55.7403846 L245.60983,57.1153846 Z M251.972779,54.3653846 L251.230435,53.9423077 L254.411909,52.5673077 L255.154253,52.9903846 L251.972779,54.3653846 Z M258.229679,51.6153846 L257.699433,51.1923077 L261.305104,50.0288462 L261.83535,50.4519231 L258.229679,51.6153846 Z M265.441021,49.3942308 L264.910775,48.9711538 L268.516446,47.8076923 L269.046692,48.2307692 L265.441021,49.3942308 Z M272.546314,47.0673077 L272.016068,46.6442308 L275.621739,45.4807692 L276.151985,45.9038462 L272.546314,47.0673077 Z M279.651607,44.8461538 L279.121361,44.4230769 L282.727032,43.2596154 L283.257278,43.6826923 L279.651607,44.8461538 Z M286.7569,42.5192308 L286.226654,42.0961538 L289.832325,40.9326923 L290.362571,41.3557692 L286.7569,42.5192308 Z M293.862193,40.2980769 L293.331947,39.875 L296.937618,38.7115385 L297.467864,39.1346154 L293.862193,40.2980769 Z M300.967486,37.9711538 L300.43724,37.5480769 L304.042911,36.3846154 L304.573157,36.8076923 L300.967486,37.9711538 Z M308.072779,35.6442308 L307.542533,35.2211538 L311.148204,34.0576923 L311.67845,34.4807692 L308.072779,35.6442308 Z M315.284121,33.4230769 L314.753875,33 L318.359546,31.8365385 L318.889792,32.2596154 L315.284121,33.4230769 Z M322.389414,31.0961538 L321.859168,30.6730769 L325.464839,29.5096154 L325.995085,29.9326923 L322.389414,31.0961538 Z M329.494707,28.875 L328.964461,28.4519231 L332.570132,27.2884615 L333.100378,27.7115385 L329.494707,28.875 Z M336.6,26.5480769 L336.069754,26.125 L339.675425,24.9615385 L340.205671,25.3846154 L336.6,26.5480769 Z M343.705293,24.3269231 L343.175047,23.9038462 L346.780718,22.7403846 L347.310964,23.1634615 L343.705293,24.3269231 Z M350.810586,22 L350.28034,21.5769231 L353.886011,20.4134615 L354.416257,20.8365385 L350.810586,22 Z M358.021928,19.7788462 L357.491682,19.3557692 L361.097353,18.1923077 L361.627599,18.6153846 L358.021928,19.7788462 Z M365.127221,17.4519231 L364.596975,17.0288462 L368.202647,15.8653846 L368.732892,16.2884615 L365.127221,17.4519231 Z M372.232514,15.2307692 L371.702268,14.8076923 L375.30794,13.6442308 L375.838185,14.0673077 L372.232514,15.2307692 Z M379.337807,12.9038462 L378.807561,12.4807692 L382.413233,11.3173077 L382.943478,11.7403846 L379.337807,12.9038462 Z M386.4431,10.6826923 L385.912854,10.2596154 L389.518526,9.09615385 L390.048771,9.51923077 L386.4431,10.6826923 Z M393.548393,8.35576923 L393.018147,7.93269231 L396.623819,6.76923077 L397.154064,7.19230769 L393.548393,8.35576923 Z M400.759735,6.13461538 L400.22949,5.71153846 L403.835161,4.54807692 L404.365406,4.97115385 L400.759735,6.13461538 Z M407.865028,3.80769231 L407.334783,3.38461538 L410.940454,2.22115385 L411.470699,2.64423077 L407.865028,3.80769231 Z" id="Shape"></path>
                        </g>
                        <path d="M336.918147,199.480769 L310.724008,198.951923 L300.119093,196.730769 L293.544045,194.721154 L288.877883,194.509615 L284.954064,192.182692 L287.817391,190.490385 L287.817391,186.153846 L282.833081,184.673077 L282.833081,182.451923 L294.286389,180.125 L294.286389,176.105769 L285.802457,172.826923 L278.591115,171.134615 L274.2431,169.759615 L270.849527,171.240385 L264.910775,169.548077 L264.910775,166.903846 L259.184121,165.528846 L258.759924,163.413462 L256.108696,162.038462 L256.108696,159.923077 L254.199811,158.230769 L254.624008,155.269231 L251.86673,154.105769 L255.154253,148.923077 L274.349149,151.038462 L277.000378,149.769231 L290.574669,149.134615 L304.679206,144.798077 L322.177316,141.730769 L379.762004,122.163462 L389.730624,122.163462 L405.10775,115.288462 L416.561059,114.019231 L419.212287,112.115385 L453.466163,104.288462 L542.653497,104.076923 L544.986578,104.182692 L542.229301,127.240385 L501.718526,144.375 L483.159924,158.336538 L483.159924,163.201923 L477.963516,164.788462 L474.888091,167.326923 L467.994896,169.019231 L473.403403,182.240385 L465.131569,183.298077 L460.04121,186.365385 L452.51172,186.365385 L448.481853,188.903846 L439.997921,189.115385 L436.604348,193.028846 L435.013611,195.778846 L422.817958,194.932692 L417.727599,192.923077 L397.68431,188.903846 L372.232514,188.163462 L365.657467,190.913462 L355.370699,190.701923 L348.159357,190.913462 L336.918147,199.480769 Z M311.042155,198.423077 L336.387902,198.951923 L347.523062,190.384615 L355.370699,190.173077 L365.339319,190.384615 L371.914367,187.634615 L398.002457,188.375 L418.363894,192.394231 L423.348204,194.403846 L434.377316,195.144231 L435.755955,192.817308 L439.467675,188.586538 L448.163705,188.375 L452.193573,185.836538 L459.723062,185.836538 L464.707372,182.875 L472.342911,181.923077 L466.934405,168.807692 L474.251796,167.009615 L477.221172,164.471154 L482.099433,162.990385 L482.099433,158.230769 L482.205482,158.125 L500.976181,143.951923 L541.168809,126.923077 L543.820038,104.605769 L542.547448,104.5 L453.572212,104.711538 L419.848582,112.432692 L417.197353,114.336538 L405.637996,115.605769 L390.048771,122.480769 L380.080151,122.480769 L322.601512,142.048077 L322.495463,142.048077 L304.997353,145.115385 L290.786767,149.557692 L277.530624,149.980769 L274.773346,151.355769 L255.896597,149.240385 L253.139319,153.576923 L255.790548,154.740385 L255.366352,157.807692 L257.275236,159.5 L257.275236,161.509615 L259.926465,162.778846 L260.244612,164.788462 L265.971267,166.163462 L265.971267,168.807692 L270.743478,170.182692 L274.2431,168.701923 L279.121361,170.288462 L286.438752,171.980769 L295.45293,175.471154 L295.45293,180.125 L283.999622,182.451923 L283.999622,184.038462 L288.983932,185.519231 L288.983932,190.278846 L286.438752,191.759615 L289.514178,193.557692 L294.074291,193.875 L300.649338,195.884615 L311.042155,198.423077 Z" id="Shape"></path>
                    </g>
                    <g id="Group" transform="translate(290.574669, 206.250000)">
                        <path d="M2.96937618,3.17307692 L1.16654064,3.17307692 L1.16654064,4.65384615 L0.212098299,4.65384615 L0.212098299,0.846153846 L2.75727788,0.846153846 C3.60567108,0.846153846 4.24196597,0.951923077 4.66616257,1.16346154 C5.09035917,1.375 5.30245747,1.58653846 5.30245747,2.00961538 C5.30245747,2.22115385 5.19640832,2.43269231 4.87826087,2.64423077 C4.56011342,2.85576923 4.24196597,2.96153846 3.81776938,3.06730769 L5.62060491,4.65384615 L4.56011342,4.65384615 L2.96937618,3.17307692 Z M1.27258979,2.75 L2.75727788,2.75 C3.28752363,2.75 3.60567108,2.64423077 3.92381853,2.53846154 C4.24196597,2.43269231 4.34801512,2.22115385 4.34801512,2.00961538 C4.34801512,1.79807692 4.24196597,1.58653846 3.92381853,1.48076923 C3.60567108,1.375 3.28752363,1.26923077 2.75727788,1.26923077 L1.27258979,1.26923077 L1.27258979,2.75 Z" id="Shape"></path>
                        <polygon id="Shape" points="11.0291115 2.85576923 7.7415879 2.85576923 7.7415879 4.23076923 11.5593573 4.23076923 11.5593573 4.65384615 6.78714556 4.65384615 6.78714556 0.846153846 11.5593573 0.846153846 11.5593573 1.26923077 7.84763705 1.26923077 7.84763705 2.43269231 11.1351607 2.43269231 11.1351607 2.85576923"></polygon>
                        <polygon id="Shape" points="13.7863894 4.23076923 17.3920605 4.23076923 17.3920605 4.65384615 12.8319471 4.65384615 12.8319471 0.846153846 13.7863894 0.846153846 13.7863894 4.23076923"></polygon>
                        <polygon id="Shape" points="22.8005671 2.85576923 19.5130435 2.85576923 19.5130435 4.23076923 23.3308129 4.23076923 23.3308129 4.65384615 18.5586011 4.65384615 18.5586011 0.846153846 23.3308129 0.846153846 23.3308129 1.26923077 19.6190926 1.26923077 19.6190926 2.43269231 22.9066163 2.43269231 22.9066163 2.85576923"></polygon>
                        <polygon id="Shape" points="27.0425331 4.01923077 29.1635161 0.951923077 30.2240076 0.951923077 27.4667297 4.75961538 26.6183365 4.75961538 23.8610586 0.951923077 24.9215501 0.951923077"></polygon>
                        <path d="M35.1022684,3.70192308 L31.920794,3.70192308 L31.1784499,4.65384615 L30.1179584,4.65384615 L32.9812854,0.846153846 L33.8296786,0.846153846 L36.6930057,4.65384615 L35.6325142,4.65384615 L35.1022684,3.70192308 Z M32.2389414,3.27884615 L34.784121,3.27884615 L33.5115312,1.48076923 L32.2389414,3.27884615 Z" id="Shape"></path>
                        <polygon id="Shape" points="43.5862004 4.65384615 42.631758 4.65384615 38.8139887 1.79807692 38.8139887 4.65384615 37.8595463 4.65384615 37.8595463 0.846153846 38.8139887 0.846153846 42.631758 3.80769231 42.631758 0.846153846 43.5862004 0.846153846"></polygon>
                        <path d="M50.9035917,3.49038462 C50.7975425,3.91346154 50.4793951,4.23076923 50.0551985,4.44230769 C49.5249527,4.65384615 48.8886578,4.75961538 48.0402647,4.75961538 C47.1918715,4.75961538 46.4495274,4.54807692 45.9192817,4.23076923 C45.3890359,3.91346154 45.0708885,3.49038462 45.0708885,2.96153846 L45.0708885,2.64423077 C45.0708885,2.32692308 45.1769376,2.00961538 45.4950851,1.69230769 C45.8132325,1.375 46.13138,1.26923077 46.5555766,1.05769231 C46.9797732,0.951923077 47.5100189,0.846153846 48.1463138,0.846153846 C48.994707,0.846153846 49.6310019,0.951923077 50.0551985,1.16346154 C50.5854442,1.375 50.7975425,1.69230769 50.9035917,2.11538462 L49.9491493,2.11538462 C49.8431002,1.79807692 49.6310019,1.58653846 49.4189036,1.48076923 C49.2068053,1.375 48.6765595,1.26923077 48.2523629,1.26923077 C47.6160681,1.26923077 47.0858223,1.375 46.7676749,1.58653846 C46.4495274,1.79807692 46.2374291,2.11538462 46.2374291,2.53846154 L46.2374291,2.85576923 C46.2374291,3.27884615 46.4495274,3.59615385 46.7676749,3.80769231 C47.0858223,4.01923077 47.6160681,4.125 48.2523629,4.125 C48.7826087,4.125 49.2068053,4.01923077 49.5249527,3.91346154 C49.8431002,3.80769231 50.0551985,3.59615385 50.1612476,3.27884615 L50.9035917,3.27884615 L50.9035917,3.49038462 Z" id="Shape"></path>
                        <polygon id="Shape" points="56.5241966 2.85576923 53.236673 2.85576923 53.236673 4.23076923 57.0544423 4.23076923 57.0544423 4.65384615 52.2822306 4.65384615 52.2822306 0.846153846 57.0544423 0.846153846 57.0544423 1.26923077 53.3427221 1.26923077 53.3427221 2.43269231 56.6302457 2.43269231 56.6302457 2.85576923"></polygon>
                        <path d="M64.4778828,3.70192308 C64.4778828,3.59615385 64.3718336,3.38461538 64.1597353,3.27884615 C63.9476371,3.17307692 63.5234405,3.06730769 62.9931947,2.96153846 C62.2508507,2.85576923 61.7206049,2.75 61.4024575,2.53846154 C61.08431,2.32692308 60.8722117,2.11538462 60.8722117,1.90384615 C60.8722117,1.58653846 61.08431,1.375 61.4024575,1.16346154 C61.7206049,0.951923077 62.1448015,0.846153846 62.7810964,0.846153846 L62.7810964,0.317307692 L63.5234405,0.317307692 L63.5234405,0.846153846 C64.0536862,0.846153846 64.5839319,1.05769231 64.9020794,1.16346154 C65.2202268,1.26923077 65.4323251,1.69230769 65.4323251,2.00961538 L64.4778828,2.00961538 C64.4778828,1.79807692 64.3718336,1.58653846 64.1597353,1.48076923 C63.9476371,1.375 63.6294896,1.26923077 63.205293,1.26923077 C62.7810964,1.26923077 62.462949,1.375 62.2508507,1.48076923 C62.0387524,1.58653846 61.9327032,1.69230769 61.9327032,1.90384615 C61.9327032,2.11538462 62.0387524,2.22115385 62.2508507,2.32692308 C62.462949,2.43269231 62.8871456,2.53846154 63.4173913,2.64423077 C63.9476371,2.75 64.3718336,2.85576923 64.6899811,2.96153846 C65.0081285,3.06730769 65.2202268,3.17307692 65.326276,3.27884615 C65.4323251,3.38461538 65.5383743,3.59615385 65.5383743,3.80769231 C65.5383743,4.125 65.326276,4.33653846 65.0081285,4.54807692 C64.6899811,4.75961538 64.1597353,4.86538462 63.5234405,4.86538462 L63.5234405,5.39423077 L62.7810964,5.39423077 L62.7810964,4.86538462 C62.1448015,4.86538462 61.6145558,4.75961538 61.2964083,4.54807692 C60.9782609,4.33653846 60.7661626,4.125 60.7661626,3.70192308 L61.7206049,3.70192308 C61.7206049,3.91346154 61.8266541,4.125 62.1448015,4.23076923 C62.462949,4.33653846 62.7810964,4.44230769 63.205293,4.44230769 C63.6294896,4.44230769 64.0536862,4.33653846 64.2657845,4.23076923 C64.4778828,4.125 64.4778828,3.91346154 64.4778828,3.70192308 Z" id="Shape"></path>
                        <path d="M69.2500945,5.60576923 C68.6137996,5.5 68.189603,5.39423077 67.8714556,5.18269231 C67.5533081,4.97115385 67.447259,4.75961538 67.447259,4.44230769 L67.447259,3.91346154 C67.447259,3.49038462 67.1291115,3.27884615 66.3867675,3.27884615 L66.3867675,2.85576923 C67.1291115,2.85576923 67.447259,2.64423077 67.447259,2.22115385 L67.447259,1.69230769 C67.447259,1.375 67.6593573,1.16346154 67.8714556,0.951923077 C68.189603,0.740384615 68.6137996,0.634615385 69.2500945,0.528846154 L69.4621928,0.846153846 C68.7198488,0.951923077 68.4017013,1.26923077 68.4017013,1.79807692 L68.4017013,2.32692308 C68.4017013,2.75 68.0835539,2.96153846 67.5533081,3.17307692 C68.0835539,3.27884615 68.4017013,3.59615385 68.4017013,4.01923077 L68.4017013,4.54807692 C68.4017013,4.97115385 68.7198488,5.28846154 69.4621928,5.39423077 L69.2500945,5.60576923 Z" id="Shape"></path>
                        <path d="M73.0678639,2.32692308 C72.9618147,2.32692308 72.7497164,2.32692308 72.6436673,2.32692308 C72.0073724,2.32692308 71.5831758,2.43269231 71.3710775,2.75 L71.3710775,4.75961538 L70.4166352,4.75961538 L70.4166352,2.00961538 L71.3710775,2.00961538 L71.3710775,2.32692308 C71.689225,2.11538462 72.1134216,1.90384615 72.7497164,1.90384615 C72.9618147,1.90384615 73.0678639,1.90384615 73.173913,1.90384615 L73.173913,2.32692308 L73.0678639,2.32692308 Z" id="Shape"></path>
                        <path d="M76.1432892,4.65384615 C75.4009452,4.65384615 74.7646503,4.54807692 74.3404537,4.23076923 C73.9162571,4.01923077 73.5981096,3.70192308 73.5981096,3.27884615 L73.5981096,3.17307692 C73.5981096,2.85576923 73.7041588,2.64423077 73.9162571,2.43269231 C74.1283554,2.22115385 74.4465028,2.00961538 74.7646503,1.90384615 C75.1888469,1.79807692 75.6130435,1.69230769 76.0372401,1.69230769 C76.7795841,1.69230769 77.3098299,1.79807692 77.7340265,2.00961538 C78.1582231,2.22115385 78.3703214,2.64423077 78.3703214,3.06730769 L78.3703214,3.27884615 L74.552552,3.27884615 C74.552552,3.59615385 74.7646503,3.80769231 75.0827977,3.91346154 C75.4009452,4.125 75.8251418,4.125 76.2493384,4.125 C76.5674858,4.125 76.8856333,4.125 77.0977316,4.01923077 C77.3098299,3.91346154 77.5219282,3.80769231 77.7340265,3.70192308 L78.3703214,3.91346154 C77.8400756,4.54807692 77.0977316,4.65384615 76.1432892,4.65384615 Z M76.0372401,2.22115385 C75.6130435,2.22115385 75.294896,2.32692308 75.0827977,2.43269231 C74.8706994,2.53846154 74.6586011,2.75 74.552552,3.06730769 L77.3098299,3.06730769 C77.3098299,2.85576923 77.0977316,2.64423077 76.8856333,2.53846154 C76.7795841,2.22115385 76.4614367,2.22115385 76.0372401,2.22115385 Z" id="Shape"></path>
                        <path d="M79.2187146,3.17307692 C79.2187146,2.75 79.4308129,2.43269231 79.8550095,2.11538462 C80.279206,1.90384615 80.8094518,1.69230769 81.4457467,1.69230769 C82.0820416,1.69230769 82.6122873,1.79807692 83.0364839,2.00961538 L83.0364839,1.69230769 L83.8848771,1.69230769 L83.8848771,4.44230769 C83.8848771,4.75961538 83.6727788,5.07692308 83.2485822,5.28846154 C82.8243856,5.5 82.2941399,5.60576923 81.5517958,5.60576923 C81.1275992,5.60576923 80.7034026,5.60576923 80.3852552,5.5 C79.9610586,5.39423077 79.7489603,5.28846154 79.536862,5.18269231 L80.0671078,4.86538462 C80.4913043,5.07692308 81.0215501,5.28846154 81.5517958,5.28846154 C81.9759924,5.28846154 82.400189,5.18269231 82.6122873,5.07692308 C82.8243856,4.97115385 83.0364839,4.75961538 83.0364839,4.54807692 L83.0364839,4.33653846 C82.6122873,4.54807692 82.0820416,4.65384615 81.4457467,4.65384615 C80.8094518,4.65384615 80.279206,4.54807692 79.8550095,4.23076923 C79.4308129,4.01923077 79.2187146,3.70192308 79.2187146,3.17307692 Z M80.1731569,3.27884615 C80.1731569,3.59615385 80.279206,3.80769231 80.5973535,4.01923077 C80.8094518,4.23076923 81.2336484,4.33653846 81.657845,4.33653846 C82.2941399,4.33653846 82.7183365,4.23076923 83.0364839,3.91346154 L83.0364839,2.64423077 C82.7183365,2.32692308 82.2941399,2.22115385 81.7638941,2.22115385 C81.3396975,2.22115385 80.9155009,2.32692308 80.7034026,2.53846154 C80.279206,2.64423077 80.1731569,2.96153846 80.1731569,3.27884615 Z" id="Shape"></path>
                        <path d="M85.3695652,1.05769231 C85.3695652,0.951923077 85.3695652,0.951923077 85.4756144,0.846153846 C85.5816635,0.740384615 85.6877127,0.740384615 85.899811,0.740384615 C86.1119093,0.740384615 86.2179584,0.740384615 86.3240076,0.846153846 C86.4300567,0.951923077 86.4300567,0.951923077 86.4300567,1.05769231 C86.4300567,1.16346154 86.4300567,1.16346154 86.3240076,1.26923077 C86.2179584,1.26923077 86.1119093,1.375 85.899811,1.375 C85.6877127,1.375 85.5816635,1.375 85.4756144,1.26923077 C85.4756144,1.26923077 85.3695652,1.16346154 85.3695652,1.05769231 Z M86.4300567,4.65384615 L85.4756144,4.65384615 L85.4756144,1.90384615 L86.4300567,1.90384615 L86.4300567,4.65384615 Z" id="Shape"></path>
                        <path d="M87.7026465,3.17307692 C87.7026465,2.85576923 87.8086957,2.64423077 88.020794,2.43269231 C88.2328922,2.22115385 88.5510397,2.00961538 88.8691871,1.90384615 C89.2933837,1.79807692 89.7175803,1.69230769 90.1417769,1.69230769 C90.884121,1.69230769 91.5204159,1.79807692 91.9446125,2.11538462 C92.3688091,2.43269231 92.6869565,2.75 92.6869565,3.17307692 C92.6869565,3.49038462 92.5809074,3.70192308 92.3688091,3.91346154 C92.1567108,4.125 91.8385633,4.33653846 91.5204159,4.44230769 C91.2022684,4.54807692 90.6720227,4.65384615 90.1417769,4.65384615 C89.3994329,4.65384615 88.763138,4.54807692 88.3389414,4.23076923 C87.9147448,3.91346154 87.7026465,3.70192308 87.7026465,3.17307692 Z M88.6570888,3.27884615 C88.6570888,3.59615385 88.763138,3.80769231 89.0812854,4.01923077 C89.3994329,4.23076923 89.7175803,4.33653846 90.2478261,4.33653846 C90.7780718,4.33653846 91.0962193,4.23076923 91.4143667,4.01923077 C91.7325142,3.80769231 91.8385633,3.59615385 91.8385633,3.17307692 C91.8385633,2.85576923 91.7325142,2.64423077 91.4143667,2.43269231 C91.0962193,2.22115385 90.7780718,2.11538462 90.2478261,2.11538462 C89.8236295,2.11538462 89.3994329,2.22115385 89.0812854,2.43269231 C88.763138,2.64423077 88.6570888,2.96153846 88.6570888,3.27884615 Z" id="Shape"></path>
                        <path d="M94.9139887,1.79807692 L94.9139887,2.11538462 C95.3381853,1.79807692 95.868431,1.69230769 96.610775,1.69230769 C97.7773157,1.69230769 98.4136106,2.00961538 98.4136106,2.64423077 L98.4136106,4.44230769 L97.4591682,4.44230769 L97.4591682,2.64423077 C97.4591682,2.43269231 97.3531191,2.32692308 97.1410208,2.22115385 C96.9289225,2.11538462 96.7168242,2.11538462 96.2926276,2.11538462 C95.9744802,2.11538462 95.6563327,2.11538462 95.4442344,2.22115385 C95.2321361,2.32692308 95.0200378,2.43269231 94.9139887,2.53846154 L94.9139887,4.54807692 L93.9595463,4.54807692 L93.9595463,1.79807692 L94.9139887,1.79807692 Z" id="Shape"></path>
                        <path d="M99.2620038,5.28846154 C100.004348,5.18269231 100.322495,4.86538462 100.322495,4.44230769 L100.322495,3.91346154 C100.322495,3.49038462 100.640643,3.27884615 101.276938,3.06730769 C100.640643,2.96153846 100.322495,2.64423077 100.322495,2.22115385 L100.322495,1.69230769 C100.322495,1.16346154 100.004348,0.951923077 99.2620038,0.740384615 L99.4741021,0.423076923 C100.110397,0.528846154 100.534594,0.634615385 100.852741,0.846153846 C101.170888,1.05769231 101.276938,1.26923077 101.276938,1.58653846 L101.276938,2.11538462 C101.276938,2.53846154 101.595085,2.75 102.337429,2.75 L102.337429,3.17307692 C101.595085,3.17307692 101.276938,3.38461538 101.276938,3.80769231 L101.276938,4.33653846 C101.276938,4.65384615 101.170888,4.97115385 100.852741,5.07692308 C100.534594,5.28846154 100.110397,5.39423077 99.4741021,5.5 L99.2620038,5.28846154 Z" id="Shape"></path>
                        <path d="M110.503214,2.53846154 L106.155198,2.53846154 L106.155198,2.11538462 L110.503214,2.11538462 L110.503214,2.53846154 Z M110.503214,3.59615385 L106.155198,3.59615385 L106.155198,3.17307692 L110.503214,3.17307692 L110.503214,3.59615385 Z" id="Shape"></path>
                        <polygon id="Shape" points="115.063327 0.951923077 114.957278 1.90384615 114.320983 1.90384615 114.320983 0.634615385 115.063327 0.634615385 115.063327 0.951923077"></polygon>
                        <path d="M120.577883,3.38461538 L121.638374,3.38461538 L121.638374,3.80769231 L120.577883,3.80769231 L120.577883,4.65384615 L119.62344,4.65384615 L119.62344,3.80769231 L116.229868,3.80769231 L116.229868,3.49038462 L119.62344,0.846153846 L120.683932,0.846153846 L120.683932,3.38461538 L120.577883,3.38461538 Z M117.18431,3.38461538 L119.517391,3.38461538 L119.517391,1.58653846 L119.411342,1.69230769 L117.18431,3.38461538 Z" id="Shape"></path>
                        <polygon id="Shape" points="123.123062 0.951923077 123.017013 1.90384615 122.380718 1.90384615 122.380718 0.634615385 123.123062 0.634615385 123.123062 0.951923077"></polygon>
                    </g>
                </g>
                <g id="Silhouette" transform="translate(346.000000, 54.000000)">
                    <path d="M50.9207207,1.06060606 L47.9441441,2.01515152 L45.7117117,1.27272727 L44.9675676,1.06060606 L44.9675676,2.01515152 L41.990991,2.01515152 L41.0342342,2.96969697 L39.1207207,3.92424242 L37.2072072,5.83333333 L38.5891892,5.51515152 L37.7387387,6.46969697 L35.2936937,7 L33.9117117,8.8030303 L33.1675676,9.12121212 L31.2540541,11.030303 L30.2972973,12.3030303 L29.7657658,13.7878788 L31.0414414,13.8939394 L30.0846847,16.969697 L29.4468468,18.2424242 L29.1279279,26.0909091 L28.0648649,35.6363636 L27.8522523,37.8636364 L27.6396396,44.6515152 L28.2774775,46.030303 L26.2576577,49.6363636 L26.045045,50.5909091 C26.045045,50.5909091 25.7261261,51.969697 26.7891892,53.1363636 C27.427027,50.6969697 28.9153153,52.0757576 28.9153153,52.0757576 L29.0216216,56.3181818 L25.1945946,58.2272727 L24.5567568,59.6060606 C24.5567568,59.6060606 18.4972973,60.8787879 11.3747748,66.2878788 C4.14594595,71.6969697 2.44504505,79.8636364 1.48828829,88.2424242 C0.531531532,96.6212121 0.85045045,102.560606 0.956756757,110.727273 C1.06306306,118.893939 0.106306306,130.560606 3.61441441,136.181818 C7.22882883,141.80303 11.3747748,138.19697 14.1387387,137.030303 C16.7963964,135.863636 20.4108108,134.80303 20.4108108,134.80303 C20.4108108,134.80303 21.2612613,139.787879 22.1117117,142.545455 C22.9621622,145.30303 17.9657658,151.030303 18.0720721,156.651515 C18.1783784,162.378788 15.7333333,167.787879 15.5207207,171.818182 C12.6504505,172.560606 15.9459459,175.848485 15.9459459,175.848485 L15.627027,178.075758 C15.627027,178.075758 12.7567568,198.651515 18.6036036,220.606061 C24.4504505,242.560606 24.8756757,251.257576 24.981982,255.924242 C25.0882883,260.590909 26.4702703,264.090909 25.3009009,268.651515 C24.2378378,273.212121 22.6432432,279.363636 22.218018,283.712121 C21.8990991,288.166667 22.9621622,302.590909 24.5567568,311.393939 C26.1513514,320.19697 29.5531532,334.090909 29.5531532,342.151515 C29.5531532,350.212121 28.9153153,355.30303 29.0216216,357.636364 C27.427027,359.863636 28.2774775,363.469697 28.2774775,367.924242 C28.2774775,372.378788 26.7891892,377.257576 28.5963964,379.590909 C30.4036036,381.924242 37.1009009,385.106061 45.7117117,384.469697 C54.3225225,383.833333 50.2828829,372.69697 50.2828829,371.742424 C50.2828829,370.787879 48.581982,365.272727 47.9441441,364.636364 C47.4126126,361.560606 45.0738739,356.893939 44.6486486,356.575758 C45.7117117,354.136364 43.0540541,349.787879 42.2036036,349.151515 C42.8414414,346.181818 42.3099099,326.030303 42.9477477,320.409091 C43.5855856,314.787879 45.3927928,297.393939 45.1801802,294.424242 C47.0936937,290.393939 46.9873874,282.863636 46.8810811,280.954545 C46.7747748,279.045455 48.6882883,269.393939 48.7945946,264.30303 C48.9009009,259.106061 53.790991,238.742424 55.5981982,227.606061 C57.4054054,216.469697 58.8936937,202.893939 58.8936937,202.893939 C58.8936937,202.893939 63.7837838,224.742424 66.7603604,232.272727 C69.7369369,239.80303 72.5009009,256.136364 74.3081081,261.863636 C76.1153153,267.590909 80.0486486,276.075758 80.0486486,279.469697 C80.0486486,282.863636 80.2612613,289.227273 81.6432432,300.575758 C83.1315315,311.818182 86.8522523,336.848485 86.2144144,345.333333 C82.4936937,347.136364 83.4504505,351.69697 83.4504505,352.545455 C83.4504505,353.393939 83.4504505,357.636364 83.4504505,357.636364 C83.4504505,357.636364 81.9621622,359.757576 81.9621622,363.151515 C81.9621622,366.545455 87.0648649,367.393939 89.8288288,368.666667 C92.5927928,369.939394 93.4432432,376.833333 101.628829,378.424242 C109.814414,380.015152 117.14955,379.69697 117.14955,374.712121 C117.14955,369.621212 112.046847,360.818182 105.881081,357.848485 C106.837838,353.606061 101.097297,349.363636 101.097297,349.363636 C101.097297,349.363636 101.735135,343.954545 99.8216216,343.530303 C101.30991,336.530303 104.711712,297.818182 102.904505,287.318182 C101.097297,276.818182 100.778378,273.106061 100.778378,273.106061 C100.778378,273.106061 102.266667,263.984848 101.30991,256.454545 C103.223423,248.075758 105.243243,214.136364 99.5027027,181.787879 C98.8648649,174.151515 96.845045,173.621212 96.845045,173.621212 C96.845045,173.621212 99.1837838,171.818182 99.1837838,170.545455 C99.1837838,169.272727 94.9315315,162.060606 94.9315315,162.060606 L95.8882883,158.984848 L94.9315315,157.181818 L94.4,153.469697 L93.4432432,148.909091 L91.8486486,146.787879 C91.8486486,146.787879 91.2108108,135.863636 89.7225225,133.106061 C88.2342342,130.348485 88.1279279,123.136364 88.1279279,120.484848 C88.1279279,117.833333 88.1279279,111.787879 88.1279279,111.787879 C88.1279279,111.787879 93.3369369,127.80303 97.5891892,130.560606 C101.841441,133.318182 104.286486,132.469697 106.306306,130.030303 C108.21982,127.590909 112.578378,122.181818 110.23964,114.227273 C107.900901,106.272727 105.136937,98.8484848 103.648649,90.8939394 C102.16036,82.9393939 101.522523,68.7272727 92.6990991,64.3787879 C83.8756757,60.1363636 72.181982,55.0454545 72.181982,55.0454545 L70.6936937,53.4545455 L65.8036036,52.1818182 C65.8036036,52.1818182 70.0558559,45.6060606 70.9063063,41.6818182 C73.0324324,47.9393939 79.9423423,54.6212121 79.9423423,54.6212121 L76.6468468,48.5757576 L79.3045045,50.6969697 L78.4540541,47.4090909 L77.9225225,43.4848485 L78.9855856,47.4090909 L80.2612613,51.969697 L78.9855856,42 L80.4738739,44.969697 L79.1981982,39.5606061 C79.1981982,39.5606061 79.7297297,36.4848485 78.8792793,30.5454545 C78.0288288,24.7121212 77.390991,19.4090909 74.3081081,13.6818182 C71.0126126,8.06060606 66.7603604,-2.54545455 50.9207207,1.06060606 Z" id="Shape" fill="#FFFFFF"></path>
                    <path d="M65.2720721,87.0757576 C65.2720721,87.0757576 71.2252252,75.4090909 72.0756757,73.8181818 C73.0324324,72.3333333 74.5207207,71.5909091 76.8594595,71.6969697 C79.1981982,71.8030303 85.045045,72.2272727 86.5333333,72.5454545 C88.0216216,72.8636364 88.9783784,74.030303 87.4900901,76.7878788 C86.0018018,79.5454545 84.7261261,82.5151515 84.7261261,82.5151515 C84.7261261,82.5151515 77.0720721,81.1363636 77.0720721,84.2121212 C77.0720721,87.2878788 82.7063063,86.7575758 82.7063063,86.7575758 L80.6864865,91.4242424 C80.6864865,91.4242424 79.5171171,88.9848485 77.0720721,89.4090909 C77.1783784,87.7121212 76.6468468,86.7575758 73.563964,86.8636364 C70.4810811,87.1818182 65.2720721,87.0757576 65.2720721,87.0757576 Z" id="Shape" fill="#CDDA49"></path>
                </g>
                <g id="Silhouette" transform="translate(191.000000, 0.000000)">
                    <path d="M80.1452229,1.16648352 C74.9643312,2.75714286 64.4968153,9.75604396 62.8050955,10.9225275 C61.1133758,12.089011 60.1617834,14.2098901 60.1617834,15.6945055 C57.3070064,17.6032967 56.566879,23.5417582 56.566879,28.95 C56.566879,34.3582418 57.7299363,33.721978 58.6815287,34.3582418 C59.633121,34.9945055 59.633121,37.2214286 59.633121,39.1302198 C59.633121,41.039011 58.4700637,43.1598901 58.4700637,44.8565934 C58.4700637,46.5532967 60.7961783,47.2956044 62.6993631,46.3412088 C62.2764331,48.6741758 62.910828,49.8406593 64.3910828,49.9467033 C64.3910828,52.2796703 65.7656051,52.3857143 67.2458599,52.5978022 C67.0343949,55.0368132 68.7261146,58.006044 71.0522293,57.5818681 C73.3783439,57.1576923 77.5019108,56.0972527 79.8280255,56.0972527 C82.1541401,56.0972527 85.9605096,58.5362637 86.1719745,62.9901099 C79.510828,65.4291209 72.955414,68.3983516 71.0522293,72.2159341 C69.1490446,76.0335165 69.677707,82.6082418 72.0038217,86.5318681 C69.889172,93.9549451 65.8713376,103.604945 65.5541401,106.468132 C65.1312102,109.331319 68.4089172,115.8 70.1006369,119.087363 C71.7923567,122.374725 70.5235669,128.313187 70.5235669,128.313187 C62.910828,126.616484 54.4522293,124.283516 50.1171975,121.632418 C45.6764331,118.981319 43.7732484,114.209341 41.7643312,113.360989 C39.6496815,112.618681 32.5656051,111.876374 32.7770701,116.86044 C28.9707006,116.33022 23.2611465,116.86044 21.3579618,116.648352 C19.4547771,116.436264 18.2917197,113.148901 15.9656051,113.148901 C13.6394904,113.148901 15.2254777,117.390659 16.1770701,118.132967 C17.1286624,118.875275 19.7719745,120.465934 22.0980892,120.465934 C22.8382166,122.374725 24.4242038,122.904945 26.644586,124.071429 C28.1248408,126.722527 30.8738854,130.54011 32.7770701,131.388462 C34.6802548,132.130769 45.9936306,131.918681 49.3770701,132.342857 C52.7605096,132.767033 68.6203822,140.19011 68.6203822,140.19011 C66.2942675,147.295055 64.0738854,158.747802 63.8624204,162.247253 C63.6509554,165.746703 61.4305732,174.124176 61.2191083,177.72967 C61.0076433,181.335165 57.4127389,197.984066 58.1528662,217.708242 C58.8929936,237.432418 63.8624204,307.73956 66.188535,319.192308 C68.5146497,330.645055 63.122293,353.444505 62.5936306,362.67033 C82.2598726,361.503846 90.6127389,361.503846 90.6127389,361.503846 C90.6127389,361.503846 82.788535,366.912088 79.1936306,366.912088 C75.5987261,366.912088 70.8407643,367.654396 70.9464968,368.820879 C68.5146497,370.199451 69.2547771,372.32033 69.9949045,372.426374 C70.5235669,375.713736 74.2242038,374.123077 74.2242038,374.123077 C73.8012739,376.562088 77.7133758,376.243956 80.1452229,376.243956 C82.5770701,376.243956 91.5643312,376.774176 96.2165605,377.198352 C100.763057,377.622527 114.402548,377.940659 117.257325,377.940659 C120.112102,377.940659 119.689172,375.077473 118.949045,370.835714 C118.208917,366.593956 116.834395,362.034066 116.834395,362.034066 L118.31465,361.07967 C118.31465,361.07967 115.036943,346.551648 114.719745,331.599451 C118.526115,340.931319 119.689172,350.369231 119.689172,350.369231 C123.495541,352.278022 128.993631,350.369231 128.993631,350.369231 C128.993631,354.398901 139.355414,352.278022 140.307006,352.278022 C140.518471,356.307692 140.518471,365.63956 136.712102,370.517582 C132.905732,375.28956 125.398726,378.152747 124.658599,378.152747 C123.918471,378.152747 123.178344,382.394505 127.936306,384.515385 C132.694268,386.636264 136.289172,384.303297 136.289172,384.303297 C138.721019,385.46978 144.113376,385.787912 148.342675,383.773077 C152.571975,381.758242 154.792357,374.971429 154.792357,372.850549 C154.792357,370.72967 159.338854,364.260989 160.924841,361.715934 C162.405096,359.276923 166.105732,353.126374 164.942675,350.369231 C163.779618,347.612088 155.426752,343.264286 155.426752,342.521978 C155.426752,338.916484 153.946497,333.932418 153.100637,333.508242 C154.052229,329.690659 150.66879,325.873077 149.294268,325.660989 C149.294268,321.101099 143.373248,314.526374 142.633121,310.920879 C141.892994,307.315385 139.778344,302.331319 136.183439,298.08956 C132.588535,293.847802 131.002548,290.03022 131.214013,287.909341 C131.425478,285.788462 131.742675,282.182967 128.887898,279.31978 C126.033121,276.456593 123.389809,248.248901 123.389809,241.992308 C123.389809,235.735714 122.015287,204.452747 122.966879,195.439011 C123.918471,186.425275 125.292994,175.714835 125.292994,175.714835 L122.438217,174.23022 C122.438217,174.23022 117.257325,153.33956 115.565605,147.613187 C113.873885,141.886813 114.402548,138.069231 114.402548,138.069231 C114.402548,138.069231 122.226752,144.962088 125.081529,144.962088 C127.936306,144.962088 131.53121,135.206044 131.95414,129.47967 C132.37707,123.753297 132.482803,104.771429 132.482803,104.771429 C136.289172,108.801099 138.826752,114.315385 135.971975,119.299451 C141.892994,117.814835 141.364331,109.331319 141.364331,109.331319 L143.267516,111.452198 C143.267516,111.452198 144.959236,102.438462 143.478981,97.6664835 C141.998726,92.8945055 138.509554,90.7736264 138.509554,90.7736264 C140.624204,87.1681319 136.077707,82.5021978 136.077707,82.5021978 C137.769427,76.5637363 137.240764,69.6708791 134.91465,66.3835165 C132.588535,63.0961538 125.398726,61.1873626 125.398726,61.1873626 C126.138854,54.5065934 123.072611,48.7802198 119.266242,45.2807692 C115.459873,41.7813187 108.798726,39.7664835 108.798726,39.7664835 C110.701911,36.160989 106.366879,36.4791209 106.366879,36.4791209 C107.847134,30.9648352 109.221656,21.9510989 106.366879,15.8005495 C103.089172,9.75604396 90.8242038,-2.12087912 80.1452229,1.16648352 Z" id="Shape" fill="#FFFFFF"></path>
                    <polygon id="Shape" fill="#CDDA49" points="26.7503185 116.86044 2.11464968 102.332418 0.317197452 104.559341 1.48025478 106.892308 20.1949045 118.239011"></polygon>
                </g>
                <g id="Silhouette" transform="translate(58.000000, 50.000000)">
                    <path d="M2.43731343,61.6073491 L9.74925373,61.6073491 C11.7626866,61.6073491 13.458209,62.7737533 14.2,64.6824147 L26.7044776,95.8572178 L12.3985075,95.6451444 L0.211940299,65.0005249 C-0.317910448,63.303937 0.741791045,61.6073491 2.43731343,61.6073491 Z" id="Shape" fill="#CDDA49"></path>
                    <path d="M12.5044776,100.310761 C3.17910448,95.0089239 9.11343284,94.1606299 6.6761194,92.888189 C4.23880597,91.615748 5.61641791,88.1165354 5.61641791,88.1165354 C5.61641791,88.1165354 2.96716418,88.6467192 3.49701493,85.4656168 C4.02686567,82.2845144 4.76865672,82.2845144 3.70895522,78.8913386 C2.64925373,75.4981627 0.741791045,73.3774278 3.17910448,71.6808399 C5.61641791,69.984252 8.26567164,69.0299213 9.53731343,70.6204724 C10.8089552,72.2110236 6.57014925,75.9223097 6.57014925,75.9223097 L9.21940299,81.224147 C9.21940299,81.224147 13.458209,81.224147 18.9686567,79.6335958 C24.4791045,78.0430446 26.3865672,80.9060367 24.0552239,81.9664042 C21.7238806,83.0267717 12.9283582,86.207874 12.9283582,86.207874 C12.9283582,86.207874 17.1671642,85.1475066 22.4656716,84.2992126 C27.7641791,83.4509186 28.6119403,88.0104987 25.8567164,88.5406824 C23.1014925,89.0708661 11.2328358,92.2519685 11.2328358,92.2519685 L27.3402985,93.5244094 L28.4,96.1753281 L22.2537313,97.2356955 L22.4656716,100.628871 L26.1746269,113.353281 C26.1746269,113.353281 31.4731343,101.159055 34.4402985,97.447769 C33.5925373,83.1328084 40.7985075,74.3317585 42.0701493,71.1506562 C43.341791,67.9695538 50.5477612,64.576378 58.4955224,60.0167979 C56.9059701,57.896063 57.9656716,56.3055118 57.9656716,56.3055118 L55.6343284,56.5175853 C55.6343284,56.5175853 53.3029851,53.8666667 53.7268657,51.4278215 C51.3955224,50.3674541 51.6074627,49.3070866 52.6671642,46.3380577 C49.2761194,46.3380577 50.5477612,43.1569554 50.5477612,43.1569554 L51.819403,36.2645669 L49.9119403,33.6136483 C49.9119403,33.6136483 47.7925373,32.0230971 48.6402985,28.0997375 C49.1701493,25.6608924 47.7925373,17.496063 50.7597015,14.5270341 C53.7268657,11.5580052 64.3238806,0.954330709 73.0134328,0.954330709 C81.7029851,0.954330709 88.061194,4.98372703 89.7567164,7.84671916 C91.4522388,10.7097113 94.8432836,17.3900262 94.5253731,23.9643045 C94.419403,27.0393701 90.9223881,34.8860892 90.2865672,42.8388451 C89.6507463,51.9580052 91.1343284,57.896063 91.1343284,57.896063 C91.1343284,57.896063 104.062687,62.9858268 108.089552,63.4099738 C108.089552,63.4099738 117.097015,64.4703412 119.746269,67.4393701 C122.395522,70.408399 127.164179,76.7706037 130.873134,87.3742782 C134.58209,97.9779528 137.231343,105.612598 137.019403,122.154331 C136.807463,138.696063 138.291045,147.60315 138.079104,159.267192 C137.867164,170.931234 129.389552,184.503937 129.389552,191.290289 C129.389552,198.07664 125.680597,205.075066 125.680597,208.256168 C125.680597,211.43727 127.270149,223.313386 127.270149,226.812598 C127.270149,230.311811 124.620896,230.841995 123.243284,234.235171 C123.243284,239.749081 122.395522,269.015223 122.395522,274.529134 C120.48806,276.437795 118.368657,275.377428 118.368657,275.377428 C118.368657,275.377428 120.48806,281.951706 123.667164,287.889764 C126.846269,293.827822 132.144776,301.674541 132.674627,309.097113 C133.204478,316.519685 131.614925,331.576903 131.614925,340.908136 C131.614925,350.23937 135.00597,365.296588 135.323881,367.947507 C135.641791,370.598425 141.152239,374.839895 141.152239,379.399475 C141.152239,383.959055 140.622388,385.973753 140.622388,385.973753 C140.622388,385.973753 122.819403,391.275591 118.898507,392.335958 C114.977612,393.396325 105.122388,393.926509 100.671642,393.184252 C96.2208955,392.441995 97.280597,388.094488 101.731343,384.701312 C106.18209,381.308136 113.6,371.128609 114.977612,368.583727 C116.355224,366.038845 120.276119,363.069816 120.276119,363.069816 C120.276119,363.069816 119.004478,347.164304 115.825373,337.833071 C112.646269,328.501837 106.81791,312.596325 105.228358,299.871916 C99.0820896,290.858793 95.161194,285.026772 93.3597015,277.392126 C88.061194,275.059318 80.6432836,267.636745 79.3716418,266.576378 C79.3716418,266.576378 78.1,240.279265 74.6029851,236.355906 C76.1925373,255.44252 75.4507463,266.258268 75.4507463,266.258268 L68.0328358,269.227297 C68.0328358,269.227297 69.3044776,272.938583 65.9134328,280.679265 C62.5223881,288.419948 62.5223881,296.372703 64.8537313,308.460892 C67.1850746,320.549081 60.8268657,331.576903 60.0850746,336.24252 C59.2373134,347.906562 56.6940299,371.234646 57.4358209,378.869291 C61.6746269,381.83832 61.6746269,386.503937 61.6746269,386.503937 C64.3238806,388.836745 64.641791,398.380052 62.7343284,398.380052 C52.9850746,401.561155 44.5074627,399.970604 41.5402985,400.712861 C38.5731343,401.455118 18.0149254,404.424147 11.338806,403.68189 C4.66268657,402.939633 4.45074627,396.471391 8.15970149,395.729134 C11.8686567,394.986877 19.2865672,392.335958 21.4059701,390.95748 C23.5253731,389.579003 31.4731343,383.004724 32.5328358,380.88399 C33.5925373,378.763255 34.8641791,373.461417 41.0104478,374.309711 C41.2223881,366.356955 37.3014925,317.261942 37.3014925,306.446194 C37.3014925,295.630446 38.5731343,285.026772 38.5731343,285.026772 L38.7850746,272.832546 L34.3343284,270.181627 C34.3343284,270.181627 35.3940299,247.913911 34.3343284,241.339633 C33.2746269,234.765354 35.6059701,228.827297 35.6059701,228.827297 C35.6059701,228.827297 34.758209,215.254593 35.3940299,211.331234 C36.0298507,207.407874 39.1029851,205.499213 39.1029851,205.499213 C39.1029851,205.499213 40.3746269,186.942782 40.3746269,183.231496 C40.3746269,179.52021 43.0238806,177.929659 43.0238806,177.929659 L43.0238806,172.415748 L45.6731343,170.08294 L45.461194,163.508661 L47.0507463,154.813648 L47.0507463,143.67979 L47.0507463,128.304462 C47.0507463,128.304462 35.3940299,146.542782 30.3074627,148.23937 C25.2208955,149.935958 19.4985075,144.528084 17.5910448,139.544357 C15.6835821,134.56063 12.080597,122.790551 12.8223881,109.641995 C13.2462687,104.764304 13.2462687,104.234121 12.5044776,100.310761 Z M111.798507,135.302887 C111.798507,135.302887 112.328358,140.074541 113.91791,143.9979 C115.507463,147.92126 113.70597,154.813648 114.977612,161.493963 C116.249254,168.174278 117.626866,187.791076 117.626866,187.791076 C117.626866,187.791076 118.156716,185.140157 118.156716,175.914961 C118.156716,166.689764 119.004478,155.980052 119.746269,145.376378 C117.414925,140.286614 113.91791,127.880315 113.91791,127.880315 L111.798507,135.302887 Z" id="Shape" fill="#FFFFFF"></path>
                </g>
            </g>
        </g>
    </g>
</svg>